<svg width="611" height="210" viewBox="0 0 611 210" fill="none" xmlns="http://www.w3.org/2000/svg">
<path d="M33.81 145.45C33.8 150.65 32.15 155.11 28.86 158.84C25.63 162.56 21.69 164.42 17.03 164.41H16.72C12.06 164.4 8.12004 162.53 4.91004 158.8C1.63004 155.07 -0.00995454 150.6 4.54549e-05 145.4L0.190048 18.97C0.200048 13.69 1.85004 9.18999 5.14004 5.45999C8.37004 1.81999 12.31 0 16.97 0H17.28C21.94 0.01 25.88 1.83999 29.09 5.48999C32.37 9.21999 34.01 13.73 34.01 19.01L33.81 145.45Z" fill="#4178F9"/>
<path d="M319.399 157.86L319.349 191.78C319.339 196.17 317.759 199.93 314.599 203.08C311.439 206.23 307.669 207.8 303.279 207.79H302.869C298.479 207.78 294.719 206.2 291.569 203.04C288.419 199.88 286.849 196.11 286.859 191.72L287.039 67.0198C287.039 65.1698 287.699 63.5898 288.999 62.2898C290.299 61.0598 291.849 60.4398 293.629 60.4498L312.959 60.4798C314.809 60.4798 316.349 61.0998 317.579 62.3398C318.879 63.6498 319.529 65.1898 319.529 66.9698V67.0798C327.009 62.6998 334.989 60.5198 343.489 60.5298C357.129 60.5498 368.769 65.6398 378.419 75.7998C388.069 85.9598 392.879 98.1998 392.859 112.52C392.839 126.91 387.989 139.17 378.309 149.3C368.629 159.43 356.969 164.48 343.329 164.46C334.849 164.46 326.859 162.26 319.399 157.86ZM362.029 113.3C362.039 105.55 359.999 98.9398 355.889 93.4498C351.719 88.0298 346.679 85.3098 340.789 85.3098C337.299 84.7598 333.799 85.0598 330.299 86.2198C323.309 88.5398 319.699 93.9798 319.479 102.55L319.439 128.25C321.009 132.5 324.779 135.8 330.729 138.13C337.579 140.81 344.429 140.48 351.289 137.13C354.579 135.56 357.229 132.62 359.219 128.3C361.079 124.19 362.009 119.6 362.019 114.53L362.029 113.3Z" fill="#1F256B"/>
<path d="M400.231 113.05C400.251 98.6599 405.101 86.3999 414.781 76.2699C424.461 66.1399 436.121 61.0899 449.751 61.1099C461.261 61.1299 469.241 66.2099 473.681 76.3599V76.2599C473.681 72.9699 474.851 70.1599 477.191 67.8399C479.521 65.5099 482.331 64.3499 485.621 64.3599L494.051 64.3699C497.411 64.3699 500.251 65.5399 502.581 67.8799C504.971 70.2799 506.171 73.1299 506.171 76.4199L506.051 158.56C506.051 160.41 505.391 161.95 504.091 163.18C502.781 164.48 501.241 165.13 499.461 165.13L485.891 165.11C483.831 165.11 481.061 163.22 477.571 159.44C476.061 157.86 474.281 156.93 472.231 156.66C470.101 156.38 468.151 156.83 466.371 157.99C459.101 162.71 453.511 165.06 449.601 165.06C435.961 165.04 424.321 159.95 414.671 149.79C405.021 139.62 400.211 127.38 400.231 113.05ZM431.071 112.27C431.061 120.01 433.111 126.63 437.211 132.12C441.381 137.54 446.421 140.26 452.311 140.26C455.801 140.81 459.301 140.51 462.801 139.35C469.791 136.96 473.401 131.52 473.621 123.02L473.661 97.3199C472.091 93.0699 468.321 89.7699 462.361 87.4399C455.511 84.7599 448.661 85.0899 441.801 88.4399C438.511 90.0099 435.861 92.9499 433.871 97.2699C432.011 101.38 431.081 105.97 431.071 111.04V112.27Z" fill="#1F256B"/>
<path d="M596.141 61.1701C601.211 61.1801 605.181 63.2101 608.061 67.2501C610.931 71.3701 611.541 75.7901 609.891 80.5101C589.041 139.9 578.331 170.45 577.781 172.17C574.271 183.54 567.981 192.34 558.931 198.56C549.051 205.33 537.881 207.44 525.411 204.89C523.971 204.61 522.221 204.03 520.171 203.13C515.311 201 512.881 197.26 512.891 191.91V191.71C512.891 188.35 514.061 185.51 516.401 183.18C518.731 180.78 521.541 179.59 524.831 179.6C527.781 179.53 530.591 178.85 533.261 177.55C539.781 174.41 543.041 167.04 543.061 155.46V154.95C540.611 142.34 531.261 117.85 515.001 81.5001C512.821 76.7001 513.161 72.0801 516.051 67.6201C518.931 63.2401 523.021 61.0501 528.291 61.0601H530.861C534.011 61.0601 536.861 61.9901 539.391 63.8501C541.921 65.6401 543.671 68.0401 544.621 71.0501L564.581 131.84C566.651 122.59 572.441 102.45 581.941 71.4201C582.901 68.3401 584.651 65.8701 587.191 64.0301C589.801 62.1101 592.681 61.1601 595.831 61.1601L596.141 61.1701Z" fill="#1F256B"/>
<path d="M473.51 209.25C481.761 209.25 488.45 202.561 488.45 194.31C488.45 186.059 481.761 179.37 473.51 179.37C465.259 179.37 458.57 186.059 458.57 194.31C458.57 202.561 465.259 209.25 473.51 209.25Z" fill="#4178F9"/>
<path d="M251.642 64.7901C227.442 48.5301 195.872 51.5601 175.372 72.9001C157.562 91.4301 140.422 110.59 123.052 129.53C111.052 142.62 96.7217 144.51 83.6217 136.01C82.8817 135.53 81.3317 134.59 78.8117 132.56L58.5117 154.62C60.6917 156.7 61.0017 157.11 63.1817 158.83C85.9517 176.78 118.192 176.72 139.892 157.49C146.572 151.57 151.912 144.17 158.562 136.65C165.572 143.88 170.612 149.25 175.832 154.45C188.122 166.68 202.852 172.55 220.372 171.93C245.812 171.03 268.062 154.26 275.092 130.1C282.302 105.4 272.812 79.0201 251.642 64.7901ZM239.522 132.64C229.032 143.52 211.802 144.18 200.612 133.89C193.652 127.49 187.002 120.78 179.292 113.32C187.342 105.58 194.002 98.7901 201.062 92.4601C212.202 82.4901 230.162 83.3801 240.112 94.0801C249.862 104.55 249.592 122.2 239.522 132.64Z" fill="#1F256B"/>
<path d="M142.941 72.0801C130.651 59.8501 115.921 53.9801 98.401 54.6001C72.961 55.5001 50.711 72.2701 43.681 96.4301C37.951 116.09 42.821 136.81 55.731 151.63L76.211 129.37C69.091 119.09 70.131 103.72 79.261 93.8701C89.751 82.9901 106.981 82.3301 118.171 92.6201C124.201 98.1701 129.431 103.39 135.741 109.54L156.951 86.4901C151.571 80.9101 147.311 76.4201 142.941 72.0801Z" fill="#4178F9"/>
</svg>
